<svg width="266" height="68" viewBox="0 0 266 68" fill="none" xmlns="http://www.w3.org/2000/svg">
<g filter="url(#filter0_d_59_16)">
<rect x="4" width="258" height="60" rx="10" fill="#3333FF"/>
</g>
<g filter="url(#filter1_d_59_16)">
<path d="M98.208 34.448H104.736C105.264 34.448 105.648 34.512 105.888 34.64C106.128 34.752 106.288 34.936 106.368 35.192C106.448 35.448 106.488 35.792 106.488 36.224C106.488 36.64 106.448 36.976 106.368 37.232C106.288 37.488 106.152 37.664 105.96 37.76C105.656 37.92 105.24 38 104.712 38H96.072C94.952 38 94.296 37.696 94.104 37.088C94.008 36.832 93.96 36.424 93.96 35.864V22.52C93.96 22.152 93.968 21.88 93.984 21.704C94.016 21.512 94.096 21.296 94.224 21.056C94.448 20.624 95.072 20.408 96.096 20.408C97.216 20.408 97.88 20.704 98.088 21.296C98.168 21.568 98.208 21.984 98.208 22.544V34.448ZM117.502 20.192C119.87 20.192 121.926 21.048 123.67 22.76C125.414 24.472 126.286 26.6 126.286 29.144C126.286 31.672 125.454 33.832 123.79 35.624C122.126 37.4 120.078 38.288 117.646 38.288C115.214 38.288 113.142 37.408 111.43 35.648C109.734 33.888 108.886 31.792 108.886 29.36C108.886 28.032 109.126 26.792 109.606 25.64C110.086 24.472 110.726 23.496 111.526 22.712C112.326 21.928 113.246 21.312 114.286 20.864C115.326 20.416 116.398 20.192 117.502 20.192ZM113.134 29.24C113.134 30.664 113.59 31.824 114.502 32.72C115.43 33.6 116.462 34.04 117.598 34.04C118.734 34.04 119.758 33.608 120.67 32.744C121.582 31.88 122.038 30.72 122.038 29.264C122.038 27.808 121.574 26.64 120.646 25.76C119.734 24.88 118.71 24.44 117.574 24.44C116.438 24.44 115.414 24.888 114.502 25.784C113.59 26.664 113.134 27.816 113.134 29.24ZM138.223 27.392H142.447C143.311 27.424 143.839 27.648 144.031 28.064C144.191 28.368 144.271 28.816 144.271 29.408V34.688C144.271 35.2 144.047 35.688 143.599 36.152C142.255 37.544 140.239 38.24 137.551 38.24C135.167 38.24 133.095 37.344 131.335 35.552C129.575 33.744 128.695 31.568 128.695 29.024C128.695 26.48 129.591 24.36 131.383 22.664C133.175 20.952 135.287 20.096 137.719 20.096C139.607 20.096 141.391 20.72 143.071 21.968C143.503 22.288 143.719 22.648 143.719 23.048C143.719 23.432 143.535 23.88 143.167 24.392C142.543 25.24 141.975 25.664 141.463 25.664C141.159 25.664 140.671 25.448 139.999 25.016C139.327 24.568 138.527 24.344 137.599 24.344C136.383 24.344 135.303 24.776 134.359 25.64C133.415 26.488 132.943 27.608 132.943 29C132.943 30.376 133.423 31.552 134.383 32.528C135.343 33.488 136.431 33.968 137.647 33.968C138.527 33.968 139.319 33.824 140.023 33.536V30.92H138.127C137.631 30.92 137.279 30.856 137.071 30.728C136.863 30.6 136.727 30.416 136.663 30.176C136.599 29.92 136.567 29.584 136.567 29.168C136.567 28.736 136.599 28.392 136.663 28.136C136.743 27.88 136.879 27.704 137.071 27.608C137.359 27.464 137.743 27.392 138.223 27.392ZM147.388 22.52C147.388 22.152 147.396 21.88 147.412 21.704C147.444 21.512 147.524 21.296 147.652 21.056C147.876 20.624 148.5 20.408 149.524 20.408C150.644 20.408 151.308 20.704 151.516 21.296C151.596 21.568 151.636 21.984 151.636 22.544V35.888C151.636 36.272 151.62 36.552 151.588 36.728C151.572 36.904 151.5 37.112 151.372 37.352C151.148 37.784 150.524 38 149.5 38C148.38 38 147.724 37.696 147.532 37.088C147.436 36.832 147.388 36.424 147.388 35.864V22.52ZM166.104 21.152C166.264 20.864 166.496 20.672 166.8 20.576C167.104 20.48 167.48 20.432 167.928 20.432C168.392 20.432 168.76 20.472 169.032 20.552C169.32 20.632 169.528 20.728 169.656 20.84C169.8 20.952 169.904 21.12 169.968 21.344C170.064 21.6 170.112 22.008 170.112 22.568V35.888C170.112 36.272 170.096 36.552 170.064 36.728C170.048 36.904 169.976 37.112 169.848 37.352C169.624 37.784 169 38 167.976 38C167.352 38 166.92 37.952 166.68 37.856C166.44 37.76 166.24 37.608 166.08 37.4C162.48 32.6 160.112 29.464 158.976 27.992V35.888C158.976 36.272 158.96 36.552 158.928 36.728C158.912 36.904 158.84 37.112 158.712 37.352C158.488 37.784 157.864 38 156.84 38C155.848 38 155.24 37.784 155.016 37.352C154.888 37.112 154.808 36.896 154.776 36.704C154.76 36.512 154.752 36.232 154.752 35.864V22.472C154.752 21.864 154.824 21.424 154.968 21.152C155.128 20.864 155.36 20.672 155.664 20.576C155.968 20.48 156.36 20.432 156.84 20.432C157.32 20.432 157.696 20.48 157.968 20.576C158.256 20.656 158.456 20.752 158.568 20.864C158.632 20.912 158.816 21.12 159.12 21.488C162.496 26.08 164.752 29.112 165.888 30.584V22.472C165.888 21.864 165.96 21.424 166.104 21.152Z" fill="white"/>
<path d="M98.208 34.448H97.708V34.948H98.208V34.448ZM105.888 34.64L105.653 35.0812L105.664 35.0875L105.677 35.0931L105.888 34.64ZM106.368 35.192L106.845 35.0429L106.368 35.192ZM106.368 37.232L105.891 37.0829L106.368 37.232ZM105.96 37.76L105.736 37.3127L105.727 37.3175L105.96 37.76ZM94.104 37.088L94.5808 36.9374L94.5768 36.9248L94.5722 36.9124L94.104 37.088ZM93.984 21.704L93.4908 21.6218L93.4877 21.6402L93.4861 21.6587L93.984 21.704ZM94.224 21.056L94.6652 21.2913L94.6679 21.2862L94.224 21.056ZM98.088 21.296L98.5677 21.1549L98.564 21.1425L98.5597 21.1303L98.088 21.296ZM98.208 34.948H104.736V33.948H98.208V34.948ZM104.736 34.948C105.245 34.948 105.526 35.0135 105.653 35.0812L106.123 34.1988C105.77 34.0105 105.283 33.948 104.736 33.948V34.948ZM105.677 35.0931C105.787 35.1448 105.852 35.2174 105.891 35.3411L106.845 35.0429C106.724 34.6546 106.469 34.3592 106.099 34.1869L105.677 35.0931ZM105.891 35.3411C105.949 35.5286 105.988 35.8157 105.988 36.224H106.988C106.988 35.7683 106.947 35.3674 106.845 35.0429L105.891 35.3411ZM105.988 36.224C105.988 36.614 105.95 36.8941 105.891 37.0829L106.845 37.3811C106.946 37.0579 106.988 36.666 106.988 36.224H105.988ZM105.891 37.0829C105.841 37.2435 105.778 37.292 105.736 37.3128L106.184 38.2072C106.526 38.036 106.735 37.7325 106.845 37.3811L105.891 37.0829ZM105.727 37.3175C105.523 37.4248 105.199 37.5 104.712 37.5V38.5C105.281 38.5 105.789 38.4152 106.193 38.2025L105.727 37.3175ZM104.712 37.5H96.072V38.5H104.712V37.5ZM96.072 37.5C94.985 37.5 94.6647 37.2031 94.5808 36.9374L93.6272 37.2386C93.9273 38.1889 94.919 38.5 96.072 38.5V37.5ZM94.5722 36.9124C94.5095 36.7453 94.46 36.4135 94.46 35.864H93.46C93.46 36.4345 93.5065 36.9187 93.6358 37.2636L94.5722 36.9124ZM94.46 35.864V22.52H93.46V35.864H94.46ZM94.46 22.52C94.46 22.1546 94.4681 21.9015 94.4819 21.7493L93.4861 21.6587C93.4679 21.8585 93.46 22.1494 93.46 22.52H94.46ZM94.4772 21.7862C94.4975 21.6643 94.5534 21.5009 94.6652 21.2913L93.7828 20.8207C93.6386 21.0911 93.5345 21.3597 93.4908 21.6218L94.4772 21.7862ZM94.6679 21.2862C94.7025 21.2194 94.7886 21.1238 95.0236 21.0425C95.2623 20.9599 95.6125 20.908 96.096 20.908V19.908C95.5555 19.908 95.0817 19.9641 94.6964 20.0975C94.3074 20.2322 93.9695 20.4606 93.7801 20.8258L94.6679 21.2862ZM96.096 20.908C97.1861 20.908 97.5243 21.1999 97.6163 21.4617L98.5597 21.1303C98.2357 20.2081 97.2459 19.908 96.096 19.908V20.908ZM97.6083 21.4371C97.6673 21.6378 97.708 21.9948 97.708 22.544H98.708C98.708 21.9732 98.6687 21.4982 98.5677 21.1549L97.6083 21.4371ZM97.708 22.544V34.448H98.708V22.544H97.708ZM123.67 22.76L124.02 22.4032V22.4032L123.67 22.76ZM123.79 35.624L124.155 35.9659L124.156 35.9642L123.79 35.624ZM111.43 35.648L111.07 35.995L111.072 35.9966L111.43 35.648ZM109.606 25.64L110.067 25.8323L110.068 25.8301L109.606 25.64ZM111.526 22.712L111.876 23.0691L111.526 22.712ZM114.286 20.864L114.088 20.4048V20.4048L114.286 20.864ZM114.502 32.72L114.151 33.0767L114.158 33.0828L114.502 32.72ZM120.67 32.744L121.014 33.107L120.67 32.744ZM120.646 25.76L120.299 26.1198L120.302 26.1228L120.646 25.76ZM114.502 25.784L114.849 26.1438L114.852 26.1407L114.502 25.784ZM117.502 20.692C119.734 20.692 121.666 21.4933 123.32 23.1168L124.02 22.4032C122.186 20.6027 120.006 19.692 117.502 19.692V20.692ZM123.32 23.1168C124.964 24.7306 125.786 26.7281 125.786 29.144H126.786C126.786 26.4719 125.864 24.2134 124.02 22.4032L123.32 23.1168ZM125.786 29.144C125.786 31.5505 124.999 33.5877 123.424 35.2838L124.156 35.9642C125.909 34.0763 126.786 31.7935 126.786 29.144H125.786ZM123.425 35.2821C121.856 36.9573 119.94 37.788 117.646 37.788V38.788C120.216 38.788 122.396 37.8427 124.155 35.9659L123.425 35.2821ZM117.646 37.788C115.35 37.788 113.407 36.9636 111.788 35.2994L111.072 35.9966C112.877 37.8524 115.077 38.788 117.646 38.788V37.788ZM111.79 35.3011C110.183 33.6337 109.386 31.6619 109.386 29.36H108.386C108.386 31.9221 109.285 34.1423 111.07 35.9949L111.79 35.3011ZM109.386 29.36C109.386 28.0937 109.614 26.9195 110.067 25.8323L109.144 25.4477C108.637 26.6645 108.386 27.9703 108.386 29.36H109.386ZM110.068 25.8301C110.526 24.7168 111.13 23.7999 111.876 23.0691L111.176 22.3549C110.322 23.1921 109.646 24.2272 109.143 25.4499L110.068 25.8301ZM111.876 23.0691C112.631 22.3287 113.5 21.7471 114.484 21.3232L114.088 20.4048C112.992 20.8769 112.02 21.5273 111.176 22.3549L111.876 23.0691ZM114.484 21.3232C115.463 20.9014 116.468 20.692 117.502 20.692V19.692C116.328 19.692 115.189 19.9306 114.088 20.4048L114.484 21.3232ZM112.634 29.24C112.634 30.7814 113.133 32.0755 114.152 33.0767L114.852 32.3633C114.047 31.5725 113.634 30.5466 113.634 29.24H112.634ZM114.158 33.0828C115.166 34.0389 116.317 34.54 117.598 34.54V33.54C116.606 33.54 115.694 33.1611 114.846 32.3572L114.158 33.0828ZM117.598 34.54C118.876 34.54 120.02 34.0488 121.014 33.107L120.326 32.381C119.496 33.1672 118.592 33.54 117.598 33.54V34.54ZM121.014 33.107C122.042 32.1333 122.538 30.8335 122.538 29.264H121.538C121.538 30.6065 121.122 31.6267 120.326 32.381L121.014 33.107ZM122.538 29.264C122.538 27.6916 122.032 26.385 120.99 25.3972L120.302 26.1228C121.116 26.895 121.538 27.9244 121.538 29.264H122.538ZM120.993 25.4002C120 24.4416 118.855 23.94 117.574 23.94V24.94C118.565 24.94 119.468 25.3184 120.299 26.1198L120.993 25.4002ZM117.574 23.94C116.29 23.94 115.144 24.452 114.152 25.4273L114.852 26.1407C115.684 25.324 116.586 24.94 117.574 24.94V23.94ZM114.155 25.4242C113.133 26.4105 112.634 27.6987 112.634 29.24H113.634C113.634 27.9333 114.047 26.9175 114.849 26.1438L114.155 25.4242ZM142.447 27.392L142.466 26.8923L142.457 26.892H142.447V27.392ZM144.031 28.064L143.577 28.2735L143.583 28.2853L143.589 28.2969L144.031 28.064ZM143.599 36.152L143.24 35.8047L143.599 36.152ZM131.335 35.552L130.977 35.9008L130.979 35.9024L131.335 35.552ZM131.383 22.664L131.727 23.0271L131.729 23.0255L131.383 22.664ZM143.071 21.968L142.773 22.3694L142.774 22.3698L143.071 21.968ZM143.167 24.392L143.57 24.6884L143.573 24.6838L143.167 24.392ZM139.999 25.016L139.722 25.4321L139.729 25.4366L139.999 25.016ZM134.359 25.64L134.693 26.012L134.697 26.0088L134.359 25.64ZM134.383 32.528L134.027 32.8786L134.03 32.8816L134.383 32.528ZM140.023 33.536L140.213 33.9988L140.523 33.8717V33.536H140.023ZM140.023 30.92H140.523V30.42H140.023V30.92ZM137.071 30.728L136.809 31.1538V31.1538L137.071 30.728ZM136.663 30.176L136.178 30.2973L136.18 30.3048L136.663 30.176ZM136.663 28.136L136.186 27.9869L136.182 28.0007L136.178 28.0147L136.663 28.136ZM137.071 27.608L136.848 27.1608L137.071 27.608ZM138.223 27.892H142.447V26.892H138.223V27.892ZM142.429 27.8917C143.272 27.9229 143.516 28.1402 143.577 28.2735L144.485 27.8545C144.163 27.1558 143.351 26.9251 142.466 26.8923L142.429 27.8917ZM143.589 28.2969C143.693 28.4946 143.771 28.8462 143.771 29.408H144.771C144.771 28.7858 144.69 28.2414 144.474 27.8311L143.589 28.2969ZM143.771 29.408V34.688H144.771V29.408H143.771ZM143.771 34.688C143.771 35.039 143.622 35.4085 143.24 35.8047L143.959 36.4993C144.473 35.9675 144.771 35.361 144.771 34.688H143.771ZM143.24 35.8047C142.022 37.0661 140.158 37.74 137.551 37.74V38.74C140.321 38.74 142.489 38.0219 143.959 36.4993L143.24 35.8047ZM137.551 37.74C135.309 37.74 133.364 36.9036 131.692 35.2016L130.979 35.9024C132.827 37.7844 135.025 38.74 137.551 38.74V37.74ZM131.694 35.2032C130.025 33.4894 129.195 31.4389 129.195 29.024H128.195C128.195 31.6971 129.125 33.9986 130.977 35.9008L131.694 35.2032ZM129.195 29.024C129.195 26.6126 130.038 24.6255 131.727 23.0271L131.04 22.3009C129.144 24.0945 128.195 26.3474 128.195 29.024H129.195ZM131.729 23.0255C133.43 21.4005 135.419 20.596 137.719 20.596V19.596C135.156 19.596 132.921 20.5035 131.038 22.3025L131.729 23.0255ZM137.719 20.596C139.488 20.596 141.17 21.1781 142.773 22.3694L143.369 21.5666C141.613 20.2619 139.726 19.596 137.719 19.596V20.596ZM142.774 22.3698C143.126 22.6306 143.219 22.8574 143.219 23.048H144.219C144.219 22.4386 143.881 21.9454 143.369 21.5662L142.774 22.3698ZM143.219 23.048C143.219 23.2793 143.104 23.6234 142.761 24.1002L143.573 24.6838C143.967 24.1365 144.219 23.5847 144.219 23.048H143.219ZM142.765 24.0957C142.469 24.4973 142.205 24.7734 141.974 24.9453C141.744 25.1171 141.577 25.164 141.463 25.164V26.164C141.862 26.164 142.235 25.9989 142.572 25.7467C142.91 25.4946 143.242 25.1347 143.57 24.6883L142.765 24.0957ZM141.463 25.164C141.415 25.164 141.293 25.1427 141.072 25.0448C140.86 24.951 140.594 24.8036 140.27 24.5954L139.729 25.4366C140.077 25.6604 140.391 25.837 140.667 25.9592C140.934 26.0773 141.208 26.164 141.463 26.164V25.164ZM140.277 24.6C139.511 24.0894 138.611 23.844 137.599 23.844V24.844C138.444 24.844 139.144 25.0466 139.722 25.432L140.277 24.6ZM137.599 23.844C136.251 23.844 135.053 24.3276 134.022 25.2712L134.697 26.0088C135.554 25.2244 136.515 24.844 137.599 24.844V23.844ZM134.025 25.268C132.965 26.2207 132.443 27.4815 132.443 29H133.443C133.443 27.7345 133.866 26.7553 134.693 26.012L134.025 25.268ZM132.443 29C132.443 30.5064 132.974 31.8086 134.027 32.8786L134.74 32.1774C133.872 31.2954 133.443 30.2456 133.443 29H132.443ZM134.03 32.8816C135.072 33.9234 136.283 34.468 137.647 34.468V33.468C136.58 33.468 135.615 33.0526 134.737 32.1744L134.03 32.8816ZM137.647 34.468C138.582 34.468 139.44 34.3149 140.213 33.9988L139.834 33.0732C139.199 33.3331 138.472 33.468 137.647 33.468V34.468ZM140.523 33.536V30.92H139.523V33.536H140.523ZM140.023 30.42H138.127V31.42H140.023V30.42ZM138.127 30.42C137.646 30.42 137.416 30.3528 137.333 30.3022L136.809 31.1538C137.143 31.3592 137.616 31.42 138.127 31.42V30.42ZM137.333 30.3022C137.236 30.2425 137.178 30.1659 137.146 30.0472L136.18 30.3048C136.277 30.6661 136.49 30.9575 136.809 31.1538L137.333 30.3022ZM137.148 30.0547C137.098 29.8543 137.067 29.5637 137.067 29.168H136.067C136.067 29.6043 136.1 29.9857 136.178 30.2973L137.148 30.0547ZM137.067 29.168C137.067 28.7545 137.099 28.4566 137.148 28.2573L136.178 28.0147C136.1 28.3274 136.067 28.7175 136.067 29.168H137.067ZM137.141 28.2851C137.191 28.1245 137.253 28.076 137.295 28.0552L136.848 27.1608C136.505 27.332 136.296 27.6355 136.186 27.9869L137.141 28.2851ZM137.295 28.0552C137.488 27.9588 137.786 27.892 138.223 27.892V26.892C137.701 26.892 137.231 26.9692 136.848 27.1608L137.295 28.0552ZM147.412 21.704L146.919 21.6218L146.916 21.6402L146.914 21.6587L147.412 21.704ZM147.652 21.056L148.093 21.2913L148.096 21.2862L147.652 21.056ZM151.516 21.296L151.996 21.1549L151.992 21.1425L151.988 21.1303L151.516 21.296ZM151.588 36.728L151.096 36.6386L151.092 36.6605L151.09 36.6827L151.588 36.728ZM151.372 37.352L150.931 37.1167L150.928 37.1218L151.372 37.352ZM147.532 37.088L148.009 36.9374L148.005 36.9248L148 36.9124L147.532 37.088ZM147.888 22.52C147.888 22.1546 147.896 21.9015 147.91 21.7493L146.914 21.6587C146.896 21.8585 146.888 22.1494 146.888 22.52H147.888ZM147.905 21.7862C147.926 21.6643 147.981 21.5009 148.093 21.2913L147.211 20.8207C147.067 21.0911 146.963 21.3597 146.919 21.6218L147.905 21.7862ZM148.096 21.2862C148.131 21.2194 148.217 21.1238 148.452 21.0425C148.69 20.9599 149.041 20.908 149.524 20.908V19.908C148.984 19.908 148.51 19.9641 148.125 20.0975C147.736 20.2322 147.398 20.4606 147.208 20.8258L148.096 21.2862ZM149.524 20.908C150.614 20.908 150.952 21.1999 151.044 21.4617L151.988 21.1303C151.664 20.2081 150.674 19.908 149.524 19.908V20.908ZM151.036 21.4371C151.095 21.6378 151.136 21.9948 151.136 22.544H152.136C152.136 21.9732 152.097 21.4982 151.996 21.1549L151.036 21.4371ZM151.136 22.544V35.888H152.136V22.544H151.136ZM151.136 35.888C151.136 36.268 151.12 36.5098 151.096 36.6386L152.08 36.8174C152.121 36.5942 152.136 36.276 152.136 35.888H151.136ZM151.09 36.6827C151.083 36.7662 151.043 36.9071 150.931 37.1167L151.813 37.5873C151.958 37.3169 152.062 37.0418 152.086 36.7733L151.09 36.6827ZM150.928 37.1218C150.894 37.1886 150.808 37.2842 150.573 37.3655C150.334 37.4481 149.984 37.5 149.5 37.5V38.5C150.041 38.5 150.514 38.4439 150.9 38.3105C151.289 38.1758 151.627 37.9474 151.816 37.5822L150.928 37.1218ZM149.5 37.5C148.413 37.5 148.093 37.2031 148.009 36.9374L147.055 37.2386C147.355 38.1889 148.347 38.5 149.5 38.5V37.5ZM148 36.9124C147.938 36.7453 147.888 36.4135 147.888 35.864H146.888C146.888 36.4345 146.935 36.9187 147.064 37.2636L148 36.9124ZM147.888 35.864V22.52H146.888V35.864H147.888ZM166.104 21.152L165.667 20.9091L165.662 20.9181L166.104 21.152ZM166.8 20.576L166.951 21.0528V21.0528L166.8 20.576ZM169.032 20.552L168.891 21.0317L168.898 21.0338L169.032 20.552ZM169.656 20.84L169.327 21.2163L169.338 21.2258L169.349 21.2347L169.656 20.84ZM169.968 21.344L169.487 21.4814L169.493 21.5007L169.5 21.5196L169.968 21.344ZM170.064 36.728L169.572 36.6386L169.568 36.6605L169.566 36.6827L170.064 36.728ZM169.848 37.352L169.407 37.1167L169.404 37.1218L169.848 37.352ZM166.68 37.856L166.494 38.3202L166.68 37.856ZM166.08 37.4L165.68 37.7L165.684 37.7049L166.08 37.4ZM158.976 27.992L159.372 27.6865L158.476 26.5257V27.992H158.976ZM158.928 36.728L158.436 36.6386L158.432 36.6605L158.43 36.6827L158.928 36.728ZM158.712 37.352L158.271 37.1167L158.268 37.1218L158.712 37.352ZM155.016 37.352L155.46 37.1218L155.457 37.1167L155.016 37.352ZM154.776 36.704L154.278 36.7455L154.28 36.766L154.283 36.7862L154.776 36.704ZM154.968 21.152L154.531 20.9091L154.526 20.9181L154.968 21.152ZM155.664 20.576L155.815 21.0528L155.815 21.0528L155.664 20.576ZM157.968 20.576L157.802 21.0475L157.818 21.0532L157.834 21.0578L157.968 20.576ZM158.568 20.864L158.215 21.2176L158.24 21.2427L158.268 21.264L158.568 20.864ZM159.12 21.488L159.523 21.1918L159.515 21.1804L159.506 21.1696L159.12 21.488ZM165.888 30.584L165.492 30.8895L166.388 32.0503V30.584H165.888ZM166.541 21.3948C166.641 21.2144 166.773 21.1089 166.951 21.0528L166.65 20.0992C166.219 20.2351 165.887 20.5136 165.667 20.9092L166.541 21.3948ZM166.951 21.0528C167.191 20.977 167.512 20.932 167.928 20.932V19.932C167.448 19.932 167.018 19.983 166.65 20.0992L166.951 21.0528ZM167.928 20.932C168.371 20.932 168.685 20.971 168.891 21.0317L169.173 20.0723C168.836 19.973 168.414 19.932 167.928 19.932V20.932ZM168.898 21.0338C169.161 21.1067 169.283 21.1779 169.327 21.2163L169.985 20.4637C169.773 20.2781 169.479 20.1573 169.166 20.0702L168.898 21.0338ZM169.349 21.2347C169.389 21.2655 169.444 21.331 169.487 21.4814L170.449 21.2066C170.364 20.909 170.212 20.6385 169.963 20.4453L169.349 21.2347ZM169.5 21.5196C169.563 21.6867 169.612 22.0185 169.612 22.568H170.612C170.612 21.9975 170.566 21.5133 170.436 21.1684L169.5 21.5196ZM169.612 22.568V35.888H170.612V22.568H169.612ZM169.612 35.888C169.612 36.268 169.596 36.5098 169.572 36.6386L170.556 36.8174C170.597 36.5942 170.612 36.276 170.612 35.888H169.612ZM169.566 36.6827C169.559 36.7662 169.519 36.9071 169.407 37.1167L170.289 37.5873C170.434 37.3169 170.538 37.0418 170.562 36.7733L169.566 36.6827ZM169.404 37.1218C169.37 37.1886 169.284 37.2842 169.049 37.3655C168.81 37.4481 168.46 37.5 167.976 37.5V38.5C168.517 38.5 168.99 38.4439 169.376 38.3105C169.765 38.1758 170.103 37.9474 170.292 37.5822L169.404 37.1218ZM167.976 37.5C167.351 37.5 167.007 37.4482 166.866 37.3918L166.494 38.3202C166.833 38.4558 167.354 38.5 167.976 38.5V37.5ZM166.866 37.3918C166.71 37.3296 166.583 37.2332 166.477 37.0951L165.684 37.7049C165.898 37.9828 166.17 38.1904 166.494 38.3202L166.866 37.3918ZM166.48 37.1C162.881 32.3006 160.511 29.1617 159.372 27.6865L158.58 28.2975C159.714 29.7663 162.08 32.8994 165.68 37.7L166.48 37.1ZM158.476 27.992V35.888H159.476V27.992H158.476ZM158.476 35.888C158.476 36.268 158.46 36.5098 158.436 36.6386L159.42 36.8174C159.461 36.5942 159.476 36.276 159.476 35.888H158.476ZM158.43 36.6827C158.423 36.7662 158.383 36.9071 158.271 37.1167L159.153 37.5873C159.298 37.3169 159.402 37.0418 159.426 36.7733L158.43 36.6827ZM158.268 37.1218C158.234 37.1886 158.148 37.2842 157.913 37.3655C157.674 37.4481 157.324 37.5 156.84 37.5V38.5C157.381 38.5 157.854 38.4439 158.24 38.3105C158.629 38.1758 158.967 37.9474 159.156 37.5822L158.268 37.1218ZM156.84 37.5C156.374 37.5 156.037 37.4484 155.808 37.3668C155.583 37.2871 155.497 37.1927 155.46 37.1218L154.572 37.5822C154.76 37.9433 155.089 38.1729 155.473 38.3092C155.851 38.4436 156.314 38.5 156.84 38.5V37.5ZM155.457 37.1167C155.346 36.9071 155.29 36.7437 155.269 36.6218L154.283 36.7862C154.327 37.0483 154.431 37.3169 154.575 37.5873L155.457 37.1167ZM155.274 36.6625C155.26 36.4916 155.252 36.2282 155.252 35.864H154.252C154.252 36.2358 154.26 36.5324 154.278 36.7455L155.274 36.6625ZM155.252 35.864V22.472H154.252V35.864H155.252ZM155.252 22.472C155.252 21.8807 155.326 21.5447 155.41 21.3859L154.526 20.9181C154.322 21.3033 154.252 21.8473 154.252 22.472H155.252ZM155.405 21.3948C155.505 21.2144 155.637 21.1089 155.815 21.0528L155.514 20.0992C155.083 20.2351 154.751 20.5136 154.531 20.9092L155.405 21.3948ZM155.815 21.0528C156.052 20.9779 156.388 20.932 156.84 20.932V19.932C156.332 19.932 155.884 19.9821 155.514 20.0992L155.815 21.0528ZM156.84 20.932C157.296 20.932 157.607 20.9788 157.802 21.0475L158.135 20.1045C157.785 19.9812 157.344 19.932 156.84 19.932V20.932ZM157.834 21.0578C158.101 21.1318 158.197 21.1998 158.215 21.2176L158.922 20.5104C158.716 20.3042 158.411 20.1802 158.102 20.0942L157.834 21.0578ZM158.268 21.264C158.25 21.2504 158.25 21.2476 158.28 21.2779C158.303 21.3024 158.336 21.3382 158.38 21.3873C158.466 21.4851 158.584 21.6242 158.735 21.8064L159.506 21.1696C159.352 20.9838 159.226 20.8349 159.129 20.7247C159.046 20.6314 158.949 20.5247 158.868 20.464L158.268 21.264ZM158.717 21.7842C162.093 26.3753 164.352 29.4121 165.492 30.8895L166.284 30.2785C165.152 28.8119 162.9 25.7847 159.523 21.1918L158.717 21.7842ZM166.388 30.584V22.472H165.388V30.584H166.388ZM166.388 22.472C166.388 21.8807 166.462 21.5447 166.546 21.3859L165.662 20.9181C165.458 21.3033 165.388 21.8473 165.388 22.472H166.388Z" fill="white"/>
</g>
<defs>
<filter id="filter0_d_59_16" x="0" y="0" width="266" height="68" filterUnits="userSpaceOnUse" color-interpolation-filters="sRGB">
<feFlood flood-opacity="0" result="BackgroundImageFix"/>
<feColorMatrix in="SourceAlpha" type="matrix" values="0 0 0 0 0 0 0 0 0 0 0 0 0 0 0 0 0 0 127 0" result="hardAlpha"/>
<feOffset dy="4"/>
<feGaussianBlur stdDeviation="2"/>
<feComposite in2="hardAlpha" operator="out"/>
<feColorMatrix type="matrix" values="0 0 0 0 0 0 0 0 0 0 0 0 0 0 0.8 0 0 0 0.25 0"/>
<feBlend mode="normal" in2="BackgroundImageFix" result="effect1_dropShadow_59_16"/>
<feBlend mode="normal" in="SourceGraphic" in2="effect1_dropShadow_59_16" result="shape"/>
</filter>
<filter id="filter1_d_59_16" x="89.96" y="20.096" width="84.1522" height="26.192" filterUnits="userSpaceOnUse" color-interpolation-filters="sRGB">
<feFlood flood-opacity="0" result="BackgroundImageFix"/>
<feColorMatrix in="SourceAlpha" type="matrix" values="0 0 0 0 0 0 0 0 0 0 0 0 0 0 0 0 0 0 127 0" result="hardAlpha"/>
<feOffset dy="4"/>
<feGaussianBlur stdDeviation="2"/>
<feComposite in2="hardAlpha" operator="out"/>
<feColorMatrix type="matrix" values="0 0 0 0 0 0 0 0 0 0 0 0 0 0 0 0 0 0 0.25 0"/>
<feBlend mode="normal" in2="BackgroundImageFix" result="effect1_dropShadow_59_16"/>
<feBlend mode="normal" in="SourceGraphic" in2="effect1_dropShadow_59_16" result="shape"/>
</filter>
</defs>
</svg>
